<?xml version="1.0" standalone="no"?><!DOCTYPE svg PUBLIC "-//W3C//DTD SVG 1.1//EN" "http://www.w3.org/Graphics/SVG/1.1/DTD/svg11.dtd"><svg t="1575513656740" class="icon" viewBox="0 0 1024 1024" version="1.1" xmlns="http://www.w3.org/2000/svg" p-id="2398" xmlns:xlink="http://www.w3.org/1999/xlink" width="200" height="200"><defs><style type="text/css"></style></defs><path d="M548.568817 146.348404q0-14.84694-10.82437-25.744447t-25.744447-10.82437-25.744447 10.82437-10.82437 25.744447 10.82437 25.744447 25.744447 10.82437 25.744447-10.82437 10.82437-25.744447zM1023.963431 676.596243l0 201.128491q0 12.579673-11.409471 17.114206-4.534533 1.170202-6.874938 1.170202-7.460039 0-13.164774-5.119634l-53.171059-53.171059q-68.017999 81.694736-181.966431 129.45361t-245.376759 47.685737-245.376759-47.685737-181.966431-129.45361l-53.171059 53.171059q-5.119634 5.119634-13.164774 5.119634-2.267267 0-6.874938-1.170202-11.409471-4.534533-11.409471-17.114206l0-201.128491q0-7.972002 5.119634-13.164774t13.164774-5.119634l201.128491 0q12.579673 0 17.114206 11.409471 4.534533 10.82437-4.02257 19.966574l-57.120491 57.120491q38.250982 52.000857 108.243697 87.692022t155.12492 47.173773l0-369.710735-109.70645 0q-14.84694 0-25.744447-10.82437t-10.82437-25.744447l0-73.137633q0-14.84694 10.82437-25.744447t25.744447-10.82437l109.70645 0 0-93.104207q-33.131348-19.45461-53.171059-52.878509t-19.966574-73.430184q0-60.55796 42.858653-103.416613t103.416613-42.858653 103.416613 42.858653 42.858653 103.416613q0 40.006285-19.966574 73.430184t-53.171059 52.878509l0 93.104207 109.70645 0q14.84694 0 25.744447 10.82437t10.82437 25.744447l0 73.137633q0 14.84694-10.82437 25.744447t-25.744447 10.82437l-109.70645 0 0 369.710735q85.132205-11.409471 155.12492-47.173773t108.243697-87.692022l-57.120491-57.120491q-8.557103-9.142204-4.02257-19.966574 4.534533-11.409471 17.114206-11.409471l201.128491 0q7.972002 0 13.164774 5.119634t5.119634 13.164774z" p-id="2399" fill="#1296db"></path></svg>