<?xml version="1.0" encoding="utf-8"?>
<svg xmlns="http://www.w3.org/2000/svg" xmlns:xlink="http://www.w3.org/1999/xlink" width="400" height="400">
	<path d="M200 145 v-130 a130 130,0 0 0,0 260 a130 130,0 0 0,0 -260z" fill="#0ff"/>
	<path d="M135 257 v-130 a130 130,0 0 0,0 260 a130 130,0 0 0,0 -260z" fill="#f0f"/>
	<path d="M265 257 v-130 a130 130,0 0 0,0 260 a130 130,0 0 0,0 -260z" fill="#ff0"/>
	<path d="M70 144.42 A130 130,0 0 0,265 257.58 A130 130,0 0 0,70 144.42z" fill="#00f"/>
	<path d="M200 369.58 A130 130,0 0 0,200 144.42 A130 130,0 0 0,200 369.58z" fill="#f00"/>
	<path d="M330 144.42 A130 130,0 0 0,135 257.58 A130 130,0 0 0,330 144.42z" fill="#0f0"/>
	<path d="M265 257.58 A130 130,0 0 0,200 144.42 A130 130,0 0 0,135 257.58 A130 130,0 0 0,265 257.58z" fill="#000"/>
</svg>
